<mxfile host="65bd71144e" modified="2021-02-04T21:35:00.800Z" agent="5.0 (Windows NT 10.0; Win64; x64) AppleWebKit/537.36 (KHTML, like Gecko) Code/1.53.0 Chrome/87.0.4280.141 Electron/11.2.1 Safari/537.36" version="13.10.0" etag="QTMTCGvFh9vfVa-Ruoi-" type="embed">
    <diagram id="WgJM2cvzGtStlb41PJhC" name="Seite-1">
        <mxGraphModel dx="1295" dy="726" grid="1" gridSize="10" guides="1" tooltips="1" connect="1" arrows="1" fold="1" page="1" pageScale="1" pageWidth="1400" pageHeight="850" math="0" shadow="0">
            <root>
                <mxCell id="0"/>
                <mxCell id="1" parent="0"/>
                <mxCell id="11" value="CaptainHook" style="shape=ext;double=1;rounded=0;whiteSpace=wrap;html=1;labelPosition=center;verticalLabelPosition=top;align=left;verticalAlign=bottom;fontSize=17;" vertex="1" parent="1">
                    <mxGeometry x="440" y="40" width="520" height="520" as="geometry"/>
                </mxCell>
                <mxCell id="21" value="Unified-Host or Microservices" style="shape=ext;double=1;rounded=0;whiteSpace=wrap;html=1;align=left;labelPosition=center;verticalLabelPosition=top;verticalAlign=bottom;" vertex="1" parent="1">
                    <mxGeometry x="460" y="250" width="480" height="140" as="geometry"/>
                </mxCell>
                <mxCell id="13" value="" style="group" vertex="1" connectable="0" parent="1">
                    <mxGeometry x="480" y="280" width="200" height="80" as="geometry"/>
                </mxCell>
                <mxCell id="14" value="" style="group" vertex="1" connectable="0" parent="13">
                    <mxGeometry width="200" height="80" as="geometry"/>
                </mxCell>
                <mxCell id="15" value="Receivers&lt;br&gt;(REST-API)" style="shape=ext;double=1;rounded=1;whiteSpace=wrap;html=1;" vertex="1" parent="14">
                    <mxGeometry width="200" height="80" as="geometry"/>
                </mxCell>
                <mxCell id="17" value="" style="group" vertex="1" connectable="0" parent="1">
                    <mxGeometry x="720" y="280" width="200" height="80" as="geometry"/>
                </mxCell>
                <mxCell id="18" value="" style="group" vertex="1" connectable="0" parent="17">
                    <mxGeometry width="200" height="80" as="geometry"/>
                </mxCell>
                <mxCell id="20" value="" style="shape=image;verticalLabelPosition=bottom;labelBackgroundColor=#ffffff;verticalAlign=top;aspect=fixed;imageAspect=0;image=data:image/svg+xml,PHN2ZyB4bWxucz0iaHR0cDovL3d3dy53My5vcmcvMjAwMC9zdmciIHdpZHRoPSIyMzYyIiBoZWlnaHQ9IjI1MDAiIHZpZXdCb3g9IjAgMCAyNTYgMjcxIiBwcmVzZXJ2ZUFzcGVjdFJhdGlvPSJ4TWlkWU1pZCI+PHBhdGggZD0iTTI0NS40NCAxMDguMzA4aC04NS4wOWE3LjczOCA3LjczOCAwIDAgMS03LjczNS03LjczNHYtODguNjhDMTUyLjYxNSA1LjMyNyAxNDcuMjkgMCAxNDAuNzI2IDBoLTMwLjM3NWMtNi41NjggMC0xMS44OSA1LjMyNy0xMS44OSAxMS44OTR2ODguMTQzYzAgNC41NzMtMy42OTcgOC4yOS04LjI3IDguMzFsLTI3Ljg4NS4xMzNjLTQuNjEyLjAyNS04LjM1OS0zLjcxNy04LjM1LTguMzI1bC4xNzMtODguMjQxQzU0LjE0NCA1LjMzNyA0OC44MTcgMCA0Mi4yNCAwSDExLjg5QzUuMzIxIDAgMCA1LjMyNyAwIDExLjg5NFYyNjAuMjFjMCA1LjgzNCA0LjcyNiAxMC41NiAxMC41NTUgMTAuNTZIMjQ1LjQ0YzUuODM0IDAgMTAuNTYtNC43MjYgMTAuNTYtMTAuNTZWMTE4Ljg2OGMwLTUuODM0LTQuNzI2LTEwLjU2LTEwLjU2LTEwLjU2em0tMzkuOTAyIDkzLjIzM2MwIDcuNjQ1LTYuMTk4IDEzLjg0NC0xMy44NDMgMTMuODQ0SDE2Ny42OWMtNy42NDYgMC0xMy44NDQtNi4xOTktMTMuODQ0LTEzLjg0NHYtMjQuMDA1YzAtNy42NDYgNi4xOTgtMTMuODQ0IDEzLjg0NC0xMy44NDRoMjQuMDA1YzcuNjQ1IDAgMTMuODQzIDYuMTk4IDEzLjg0MyAxMy44NDR2MjQuMDA1eiIgZmlsbD0iI0Y2MCIvPjwvc3ZnPg==;" vertex="1" parent="18">
                    <mxGeometry x="20" y="18.85" width="39.94" height="42.3" as="geometry"/>
                </mxCell>
                <mxCell id="19" value="Publishers&lt;br&gt;(MQ-Subscriber)" style="shape=ext;double=1;rounded=1;whiteSpace=wrap;html=1;" vertex="1" parent="18">
                    <mxGeometry width="200" height="80" as="geometry"/>
                </mxCell>
                <mxCell id="23" value="" style="group" vertex="1" connectable="0" parent="1">
                    <mxGeometry x="1040" y="160" width="200" height="80" as="geometry"/>
                </mxCell>
                <mxCell id="27" value="" style="group" vertex="1" connectable="0" parent="23">
                    <mxGeometry width="200" height="80" as="geometry"/>
                </mxCell>
                <mxCell id="24" value="Rocket.Chat" style="shape=ext;double=1;rounded=1;whiteSpace=wrap;html=1;align=center;" vertex="1" parent="27">
                    <mxGeometry width="200" height="80" as="geometry"/>
                </mxCell>
                <mxCell id="26" value="" style="shape=image;verticalLabelPosition=bottom;labelBackgroundColor=#ffffff;verticalAlign=top;aspect=fixed;imageAspect=0;image=data:image/png,iVBORw0KGgoAAAANSUhEUgAAAQAAAAEACAYAAABccqhmAAAACXBIWXMAAAsTAAALEwEAmpwYAAAGAGlUWHRYTUw6Y29tLmFkb2JlLnhtcAAAAAAAPD94cGFja2V0IGJlZ2luPSLvu78iIGlkPSJXNU0wTXBDZWhpSHpyZVN6TlRjemtjOWQiPz4gPHg6eG1wbWV0YSB4bWxuczp4PSJhZG9iZTpuczptZXRhLyIgeDp4bXB0az0iQWRvYmUgWE1QIENvcmUgNS42LWMxNDUgNzkuMTYzNDk5LCAyMDE4LzA4LzEzLTE2OjQwOjIyICAgICAgICAiPiA8cmRmOlJERiB4bWxuczpyZGY9Imh0dHA6Ly93d3cudzMub3JnLzE5OTkvMDIvMjItcmRmLXN5bnRheC1ucyMiPiA8cmRmOkRlc2NyaXB0aW9uIHJkZjphYm91dD0iIiB4bWxuczp4bXA9Imh0dHA6Ly9ucy5hZG9iZS5jb20veGFwLzEuMC8iIHhtbG5zOmRjPSJodHRwOi8vcHVybC5vcmcvZGMvZWxlbWVudHMvMS4xLyIgeG1sbnM6cGhvdG9zaG9wPSJodHRwOi8vbnMuYWRvYmUuY29tL3Bob3Rvc2hvcC8xLjAvIiB4bWxuczp4bXBNTT0iaHR0cDovL25zLmFkb2JlLmNvbS94YXAvMS4wL21tLyIgeG1sbnM6c3RFdnQ9Imh0dHA6Ly9ucy5hZG9iZS5jb20veGFwLzEuMC9zVHlwZS9SZXNvdXJjZUV2ZW50IyIgeG1wOkNyZWF0b3JUb29sPSJBZG9iZSBQaG90b3Nob3AgQ0MgMjAxOSAoTWFjaW50b3NoKSIgeG1wOkNyZWF0ZURhdGU9IjIwMTgtMDctMjVUMDA6NDI6MTQtMDM6MDAiIHhtcDpNb2RpZnlEYXRlPSIyMDE4LTEyLTE4VDE2OjUwOjU3LTAyOjAwIiB4bXA6TWV0YWRhdGFEYXRlPSIyMDE4LTEyLTE4VDE2OjUwOjU3LTAyOjAwIiBkYzpmb3JtYXQ9ImltYWdlL3BuZyIgcGhvdG9zaG9wOkNvbG9yTW9kZT0iMyIgcGhvdG9zaG9wOklDQ1Byb2ZpbGU9InNSR0IgSUVDNjE5NjYtMi4xIiB4bXBNTTpJbnN0YW5jZUlEPSJ4bXAuaWlkOjYwNzZmMDNkLTljYWYtNDU5Yi1hYTQ4LTEyNTQ5ODc1MTcyNCIgeG1wTU06RG9jdW1lbnRJRD0iYWRvYmU6ZG9jaWQ6cGhvdG9zaG9wOmU2NGEyMDU0LTJmZTEtYTg0OS05NDJkLTU3YTFhMDc4YTM2NCIgeG1wTU06T3JpZ2luYWxEb2N1bWVudElEPSJ4bXAuZGlkOmJmNmIwMzQ0LTI5MDEtNGJkOS04NzhkLTM4ZWViMDlhOTc1YSI+IDx4bXBNTTpIaXN0b3J5PiA8cmRmOlNlcT4gPHJkZjpsaSBzdEV2dDphY3Rpb249ImNyZWF0ZWQiIHN0RXZ0Omluc3RhbmNlSUQ9InhtcC5paWQ6YmY2YjAzNDQtMjkwMS00YmQ5LTg3OGQtMzhlZWIwOWE5NzVhIiBzdEV2dDp3aGVuPSIyMDE4LTA3LTI1VDAwOjQyOjE0LTAzOjAwIiBzdEV2dDpzb2Z0d2FyZUFnZW50PSJBZG9iZSBQaG90b3Nob3AgQ0MgMjAxOSAoTWFjaW50b3NoKSIvPiA8cmRmOmxpIHN0RXZ0OmFjdGlvbj0ic2F2ZWQiIHN0RXZ0Omluc3RhbmNlSUQ9InhtcC5paWQ6NjA3NmYwM2QtOWNhZi00NTliLWFhNDgtMTI1NDk4NzUxNzI0IiBzdEV2dDp3aGVuPSIyMDE4LTEyLTE4VDE2OjUwOjU3LTAyOjAwIiBzdEV2dDpzb2Z0d2FyZUFnZW50PSJBZG9iZSBQaG90b3Nob3AgQ0MgMjAxOSAoTWFjaW50b3NoKSIgc3RFdnQ6Y2hhbmdlZD0iLyIvPiA8L3JkZjpTZXE+IDwveG1wTU06SGlzdG9yeT4gPC9yZGY6RGVzY3JpcHRpb24+IDwvcmRmOlJERj4gPC94OnhtcG1ldGE+IDw/eHBhY2tldCBlbmQ9InIiPz4JkmRNAABD2ElEQVR42u29B5yU1dU/flUUUEH6wrJsmbqzDRZYOgtIMxQVREARpFgSDdZoNLHEWIgt5TWJmr8lMflF88YSjSaWGBOjprwaC+zu9F62N3ZZysL9n++dmZXulrnPzuze8/l8eYbd2ZmnnPO955577jmMc84UFBT6J9RNUFBQBKCgoKAIQEFBQRGAgoKCIgAFBQVFAAoKCooAFBQUFAEoKCgoAlBQUFAEoKCgoAhAQUFBEYCCgoIiAAUFBUUACgoKSU8AwWnTWMuSJSw8YwazZWUxj9HIfAUFLDh1KguuX8+8s2czV3Y2c+n1zGkyCYTy8lggN5eFcaSfi/dPnMgc48ez8MaNzE2f5aG/Cep0LEC/85vNLDB9+lne/HyDU68/lz7rImd+/g3e+fO/59TpfkQ/+6XDYHiRjq8S/kyv36Hjm4Q36PVrdPytQ69/0mUyPewyGu+w6/VX+I3GZW6DYSYdx/gNhtPsdF44dw+djz8/n4XptZde2y0W5qTzpO9hwaIicT42+rmLzt+Rmck89POaq65irgULWGDcOPF/P12Lr7CQ2el+hGfNYuHJk5l1xAjmXryYNW3bxvzp6cxHnxWk93joe8P0fR76vOo77mCBlSuZfdgwFqB7EN6wgbnp8yL0u2BxMaNrYKFJk1iYgKObfl41fTrz0We46Bx9JSXi3EP02T46f5fBwOgao/ed/hafgc8LrVvHPPTc8Fy89D47/cxD1+mh+4zXuDY3vcbf2HE/6O8j9HsHvdcJ0GfiXHA8AvQzx1E/w/+99Lc4Vwd9tvgZHd10vi76Drz20dFNn1sxciQLXnwx8y5dytxjx4rP89H7ggQ7/g7XSfDiZ3T9zpwc5qPPDuBe4Jng+dH7AhMmsMAllzAfvQ6dfz7zLlzI3HTPq+h++pYvZ3b6HlwHvtODZ0t/G5g5k7nw3PCazlX8HtdA54bzxP9DsfuJ74Ru4BlW0jMk/WH2jAwWXLaMeRctYn5C3YoVzEXfaY9daxPpQO3cucwBfcJ9wufR5+LeBnAkhOg1rgs/C82Zw/y4Rnqvh55bCM+fnleIdK6KbAT3KED2gnPFZ1XR8wzS39TQdXvovuxKS2N1pGuc9I/T77nVmpwEEISC0Y0M4wLpJobWrh3oLimZRH+zgYzxPnrgr5Ai/5cUqYHASfGiyM7mtrFj+RE/+wrQwxAQr2OgG7yPEKTP+Tt9z9N0nt8iYzgvaDBkCgKAgpBRKQJQBKAIIEEEAIUP0o2I0JE8gDFui+V8UpIHSKnept9XwajjBho3WntODnfEjDeRiH/P4a/tX37PLlK6XznM5mvpu4tDpCAwWkEAMAhFAIoAFAF0jQDwAAMWyzRS/Dvogf2dFGkvDM4GA4fxZWVJMfTuEIN4jXMBAdFrOncnKc0v6YZvJqXIBAFAEeq2b2cuUrIAKa0iAEUAigBAAFOmsPCWLcw3bx5z0c+JABbRw/85wR4f1W0xw3KkCOCF2GNERThEBv6WOyvrmsrLLze6yQMI0QP3KgJQBNDfCcBPNyVMN9T3ta9Nck+Z8jCduKNjNE0hg+8UKWRnR0nMZHrTbzRudeXkjAjSwwYJKAJQBNA/CIBOJkJfBALwmkwDSHkup4v+my0jQxhIXzP6I4B4BU1bBBHQa5rKNJExPeO2WObggVWWlrIITYesw4crAlAE0PcIIEQ3bi9deHjatNFEAHfSAw4I9z5J5vK9AVtsqkCk8EFgypQtoYkTz7CR0rnJU2q64gpFAIoA+g4BkIJPCU+Z8gNHTk6zPcXm9FpNEUjJg/YxY+7wnHfeyNZrr2UBxAoUASgC6AsEQA/wmfLMTDHiObuwJt+vSCBOBHl5TeGZM+/36XQjYIwwVEUAigBSmgDogQygE3jSOmYMdyBCrkjg+DAauZ2IsmLcOKx+1PsKC68PkLF66cErAlAEkLoeAJ0gsviqFizYYYXx99N5f3fiBHSvPiXjWAwlUgSgCCAlCQAXWEknuu+uu5ituPhOjHLKwLuQmkyk6dHpnvbm54+oe/BBFrjgAmY/5xxFAIoAUocAInTjWr/1LWbHCWdl3a6MuwuIrZjYs7Prw5s3bxQEMHy4IgBFAClEAHSirTfdxGwFBcxJN4JO9PaOlF4VE+h8LsH48dyRm/u/ZJijg6SQ4csuUwSgCCAFpgBTprCW7dtZ+bhxzDpoELMOGcKsZ599VwV265nNysA7SwJIJgJxZmU1+GbOvLhyyxZFAIoAkp8AAmPGsPZnnmGt//oX2/PBB2zPhx8KVF5yyYPlgwcr4+5GbADE6Z4y5edYJahSBKAIIJkJwEejPv/Tn4755cEHHmB2xp6wfbmBRqGT3oCod0BTAjKYnWGLJS88daoiAEUAyUcAO7HT74wzGKeR/+hf7t2xg1kZvScz82WQgFMZd7e8AVK+Q2QIlwklVASgCCCZCKAOF0ckwK+/nvEnnjgC7fQw6+nG1CHhxWj8Z4XyBLpNAjZ4BDk5P4qQIgEoTqIIQBFArxMApwvj9OWcHhgfPPhI0MXzGTPE70N5eWd8npHhVwbdg+QhIgFPbu6fAoWFgyppSqAIQBFA7xMAXWhnsG/1atYwZ86EsrFjD9hUynC3YwO26PZqR7i4WA+jVQSgCKB3CYCUqVPYtInxCy9kodzceRWoE6BIoGcZhDk5LWRUc2pmz+46AaxffwwBwKi8pEyCAEAGMIIYAQTo7yvp9ycggFMIpxEG0PtPOR4BwIjdIJDDCMBD5+mKkYIfhAMCGDGChUiBvWRIblJgRQCpQACkTJ0GnTiIgG7cdVaVMtxzEqBjaNKkNVCezhAAVhJQsxCl1700NSMCGEQEMJo+axKN+AvdJtMa+uxv0PvvJGN6mP7mF/T/F+hz/kTG8h4Z878In9LPygkugofgc6Cqsl4fJmCK54aHQqgQRVX1+s/IeD4gw3+HXr9Cx+fo+DgZ1Q76+W30eqvHZFpO3ze3YtQoS3D16pHexYtP84wbJ85ZlGgnKAJIVgK4//6u4dFHGb/7brD/byrS05Ux95QEaEpASnmFB4pIRh2gIzIz/VECOJV+N46Ut5QUaQMZzl30s8fdkya95czN/ZRG3xoUZT2mXNth5dPj25ltPdjkZY8VVj3Rz44owGoy7SGFDtL5fkg/e5WI6Ydes/l2Ip6L6OfTiACG+0ByZBAgAD/IgIxLEUBvlQRbu7bzoPkdKgVHLr2UuehkrdnZDrtaGeh5rQG6h6RkN3snTy6l0fRGcuUfJ8V5j34fIBw4PIgojHn8+Gh9gmSbgsVSoh2x8modKyBHkkcrGWMFEcGbTp3uxx6z+RpfYeFcIoBRIAAvjB7GuGVL1JBAAGSQigAkEUAr3YAuoaCAtdKN209z1+aioswKPGy1hTghm4ocsVJkoiRZ34+BHN3spY0I5HMXTVk8WVm3k6Ev9WZmpoXXrGG+JUuYh4yxBlWqsd16xAhFAIkigGa6sC6DLqZpyhTWOH06bs5Ga18vHKqgqUdkgycxYQKwj6Y7/+e0WB53Z2dvjaxZUyA8gFGjFAEkigCsdNO6CztdlIsu0mowqExBhcR7REYjF5WpUbIu5mWSQdtIz55xGgxbyJhNWI0QKyRkPC7SR0UAXSSAerq47gJZhI00JajLzx9AN6rJphRXQYvdlofFPsiwdxJZPOYrKVnmLCwcDGMOwUgVAXRyFYAurscgEmgym5eU9fG5q0KS7ryMd33S6arIwJ/3mExbXUZjFqYITjIwRQAnIYBamssnAnUlJbjZ/2tT8QCF3poyHLbkSYZ3iKYJb5DhX0kEMAG5FBEydI8igKO2A9NJJgJOukGegoJBjpyc/UohFZKMGA7StOF1v16/lUhheABJVyACRQAsmkKaIKCnIDHu1gqap6keAwpJuStTr2+kKcIzrpycRej/WE0kEOjXQUC6sISBpgKA12yusKoEIYVk3ZUZa2dP04JyMtw7fEZjpoMIILRypTBM/8KF/YcA2ojtEom9y5ezqpKS6WUTJihlU0juVYV40pVO1+5IT/91YMmS+d7581mQiKBh9WrmGju27xOAm0420fBhHdZgeMemMgQVUmV6ENvdahs//p/+JUu21ixadKqbjLXPE0A1OtokGMgPiOTmmlVegELK5RnEcg2c2dlet9n8LSKGIZ6CArZ76tQ+OgWgE5CBfaiEazC8UaGUSyEFVw7ssZwWOtY4zebvN0ycmNawcCFzxFKP+wwBiOUQCfBHc7ULrdE1WaVUCik9PXDqdK3+4uL7XGbzCFEUpc8QABIiJCGAi8/J+UjFAhT6wsqBKIKj0zUQAdxJRns2Gr4EUj4TEHMbWaCLCkyatNJ6nIISCgopPUXQ66vI0G9EObcQGXHKEkDND34gDzt2sNp770X1oCoUsVDKo9DXvAI6fkEksAJeQISQcgRQRSO1TFSXlGBZ8GHVXUihLxOBG6nGRuPE8JQpYkqQOh7AxIlSUUsXHikqKlCZgQp9vpAJEYEvL2+H12A4NTJ/PvOj7mHS7wWgE9ACToPBpUqHaVRWDK3KMzK4LS2NW0eO5NZhw3jF2WfzisGDefnpp/PyU0/lZaecwssYOznoPeWnncbLzziDV5x5Jq8YMoRbhw/ntlGjuG3s2GjVHuz+BLmrZxv1BnAvsrPtgenTl2OvASo7JzcBkLsiG8gMpBvxI0UACTBwJKqkp3PriBHCKIUxk7Huihlt+YAB4ucwUhims6CAu6dO5Z7SUu5bupT7V63iwUsv5aGNG3loyxYevuIKHv7613nkm9/kkWuv5eGrr+ahbdt4aPNm8Z7g+vXcf/753Lt4MffMmcNdxcXcmZcnqvSADCoGDRIkccQ50P9BFjgHEJGjH3p/IAKXXv+c02Qa7qVpQdISAAIWsoE5kc9kWqaKhXQB6CU4bpwwJIzEHcY1cKAYfV0TJ3LvwoXCmCPXX89rH3qINzzzDG9+7TXe+o9/8LbPP+f7/X5+sKmJH2pr4wmRQ4f4wT17eHt9Pd/vdvO2Tz7hre+9x5tffpnXP/kkr7nvPh7+xjd44OKLBVmAKOCBgJQOJwd4JHYEhfsyMXyZTFTjLSq6CLGBpCQAdJGRDXSVcebmjrBjX7Yy7mNSUGEIMGqM3PGRFIaO0dMzaxYPXX45r7rjDl7/i1/wlr/8he+rqOAHW1p4UguRRXtDA2/77DPe/PrrvO6nP+WVN9/MA2vXcteUKdw2erQggzgxWIcOjZICvJy+tJU8lgjnMpufdObknB7JymJVmzYlUSIQNu9oANH9xmD4vN9PA6DcNLqLkZHc912xURHG7l2wQLjh9T/7WdTQaZSFIfU1ObR3L99bVsabX32V1z76qJhyuKdPF1OGDgI84wxBin2CEGLbj+3Z2U4y+rk1V1whypsHxo3rfQII0IdrgWC0SOP/s/dHg8eccMyYjhEPyk0eEQ+sW8drduzgu2mEhEvdr6W9ne/dtYs3Pf88r/rOd7hv2TIRZIwTAmINwkPA/UxRQhAFSdLSuH/p0lv9CxawIHkDvU4AnlidNNnwRgsy3mXvJ0aPSDzm73EXF6N+YNUqXvPAA2J0xzxaycllv88n4gtVt93GvYsWiWlDx5SBPKiU9A6w5TjaXPfFkMUyMBTr2txrBODAzibtsLXPGr3RGDV6mseLEWvwYO4uKRHR9abf/Y4fCAaVRfdQ9lZU8IannuKhTZvQH6AjOIrViJQig9iUgAZEly83dwqqFveeB4BW0loALabN5pV9zejxMLHGHndTEbSr+u53eev77wu3VomkGQN5UM1/+IOImTjz8zumCsIzSJFpgmiLRufp1OsvR5v4UGlpL6wCxBonyIYbuQAm07w+MaeHGzdqVNQdpVHIPW1a1Oj/8Q9lmb0gB3fvFgFFkAGeTXyagHwJQdJJTgZorRfIz9/hJ2Ov27SJebKztSOAisxMzUAXOjdlqwVDkehBxde08Tp81VUigNcXI/Up6xnU1vLG557jgdWrhTcgPLMhQ44IyCbjoGJFgLO4+PkG8gC8Op2GewGKi7XB1KnYE1CaUpuC4J6ZTGI5Kr5ch6W6+scf5wciEWVtKRAzqL7nHu4qKvrSK8CefnqmybqfwJOb+z5NlQeWjR2r0TJgYaE2KCpivry8lSmRM46RgkZ8BJd2ktJgCS+0dStveecdZVUpmnfQ+Pzz3L9ypYjTgAyQZZl0RIDgIAjKYKggAhhdf/XVjM+eLTkVOCdHM7hzcjbbU8Dw40E9bHTBmvQ+l0tZUR8RxGmwBwLpyIIIRo8WXl6yTQ9oChBq2Lo1QzoBVJJhykQVoUavFwgYDPdYk9XwSQniho+ocu2DD/L2mhplMX11elBWxitvuklM7+JenjOJPAKxfT43t3a/Xp/DyXtOidZgx4NY/ostBdLo+oekmgJgjm82c+s550QNn14jNRUbXpT0k2Qjr1fsUbDGVnVACMlABAiWl2VkcOvo0Q37LJYc3toqqT34ggXysGgR200uDHq0e0ymUrqovcli/DB2pGWC/bEZByN+0m+wUSJNMM2LXHddR/Ymkrp6O0aATUSiw1ZaWv3u554b3/Lhh2zfv/7F+CefJAxyCWDJEtZSWsrI7S9Omug/PVQ8XLE8NHQor7zlFt5eV6csQIkQbKMOrF/fURQlHhfqNRJAMBrJZkOHRr4YPHh4JD2diSlBfn5CwPj8+dJwcOFCVj9tmq48O7ut113/2JIe1vHxYIMbNoh5oBIlx5Pdb70liqjAQ0TAEB5jry4RYtBKT7fXFBUN4IsXMz5vXkLAOBlpwkGuP0Z/X2Hh2dasrOre3gIs3P0xY8TDRCGN5j/+UWm4kk5J3U9+0jFV7O1pATIGvWbzh7UlJawd+QEzZjA+bVqPwPjMmYkFndihOXNYK722Gwz/rUCftV5e1sOIj0061XffrbL2lHQ9UBgI8ODGjR2bvIQ30AvLhggMVhAJfJ6Z+cK+qVMZz81lHFOCHoDxrKzEITOTcb2e7bdYWFl29ku2WMfV3h714cqhMo0SJT2Rphdf7IgfIRW8t7wBVB/2DBx4z75HHmG8qorxysrosRtg/PbbE4PbbmP8/vsZv+oq5svIuAtM1ZtLe6i2gwq41d//vtJcJQkTlDkLxbwBlDFDYZfe0PMvSL+r7r131T4y4r21taytpobt7QZYAxlsItBIaLn+ela9atXSXfHabr20YUfM9YuK+J5//1tprBIpgg1HCA5ietkrmYQ0yFWMHs29Y8boIuPHs9C4cd0Ca6F/EoFWmk+E0tLG7ExLa++V+RESekaOFMaPktb8wAGlpUqkyj6Hg3tmzowGCLXeZIQt6SgRn5npqTabWe3Ikazy1FO7DLaX5u49xb7sbNam0zGPTvdpRW/M98kNEw0vCPVPPKE0U4mmEtm+vaMYidbLhaI/4Zgxv25cv5613HNPl8GcyNTrCebMYW462kym+8BIzl5Y2xcpnOnpfM9HHyltVNIrgpLtopPSwIGaxwXKBgzAtuc1eysrWRsQiXQaLDB5cvdRXMwC06Yx9+TJ02zxzjUaV9uF++UmN+xAZaXSQiW9Kq1//zty96NxAS09AWQLjht30G0wjECVYZ/BwHxGY6eAPfrdg8XCAhMnskhhIXNmZkY0TfaJFeCE8aMLjRIlySLIGXBaLNHNZVoFBxEPIHtwZ2W9V5mfzwLDhzP/0KGdAmssLe0e5s1jTYsWMVdR0Y9EEQMtc/kzMoTxow2VEiXJJqhR6J41K7rRTMOahNa0NPSB3FT3i1+w6k6C8fff7x4++IC13XprYfngwdyupfHTXB83tvrOO5WmKUlqQXOTnfENRRqQAKoc2XNzD7T8+tdn7v/979n+F174SrDq1au7hlWrxLHqoouYffr0clHMUCu3n74LNxRNKJUoSQVBZ2WtSEBsdsNU4PTTX2gePJg1nXrqV4LVjx7dZTSOHctCY8Zs3kWMo0nxBBh/zO1XmX1KUs4TWLFC0+lAOfa93HDDlL1//Stre/fdk4IdvOKKzmPbNtZ+3XVs95o1Z1RkZOyxa7HHH222Ytl96JCrREkqinfx4o6qU9JjATRN9syeXRZZv54F16xhQfLWxfE4YC3LlnUau5cvZy0XXMAqp09/uFyLwF/MbRIBv6uvVlqkJGXlUHs7d02aFCUByXkCopQ9eee2kSPXOjMzmeMkYPTmTsNFIDdmmFZbfMGWMH4/uVBKlKS6oPIU4lgoSiObBERSntFYeWDxYtZ+3nmsHcfjgLl0uk7DrdczV07OL7RI+MENEgkVhYWcHzyotEdJn5B9NptIWUchWtnxswqaolfn5V21x2xmrTTat2ZlHYNOd/Z1GgzMlZc3WosgBm4MijOiiMd+v19pjZI+JWhqKjYQZWRIDQqCAOxZWbWHVq8W2/T55s3HgLXPnv3VmDOHHZw1iwWNxp+Uyw78IehHbhLmSrvffFNpi5I+Kchj6VgZkNhpqGzoUKwIbG597TXW8uKLx4DVrVjx1bjgAtawbNlZbqOx3Sa50AdGf5Xoo6Q/iGfePE1WBqw6ndeelsbsQ4cy21FgwYyMk2P8eAEalW+rIEaR2d0XNwLzfvfUqUo7lPR52R8MihqD6EEpzRNAHUH6/Mq1axfX33cfq/v+91ndvfd2gNXn5Z0UDfn54ugxGCJW2Rsa0tJEgGSf3a60Q0m/kMbf/CY6FZAYWLeOG8e9paV/q7/qKlZ39dWsDscYmMtiOSncZPyO3NwlKDzglJznjxtR+8gjSiuU9CtB12KZUwE7Btf0dF5lsWTWFRezuqKiDjC/wXBSBAhk+H+2SzZ+jPyo46dESb+bCng8vPyMM4QHLGVVIFZO3Gc0PlA3cSKrKyjoAPPk5p4QXjT1zM0dLj3jL1ZqufX995U2KOmXUnP//cIDlpUbYI+uCoR8ej3z0qAeB7MOGnRC2M48E6P/12UuVcRLegXXrVNaoKTfClKFxdr9kCFScwPI3ua4DsvuZZW33HJi3Hgjc+bmfiQSFmT1PKPPRg3/veXlSguU9GtpeOopqbkB8AJcBsPPPUYjc8fAQrfddkKEb745DYEJO1oUS5r7Y/QPbdumnr4SJSToXVlx1llyvIDoSkMYgX0PQFN8Fh427PgYMYJ5hg7dgoaE0hiJiAXBD+RHK1GihLyAZ5+V6gWgeG/EZJpardezap2OpgD04nioilYNfckma30y1rQzsGaNeupKlMRjAXv3RtfukRwkaZeg12K5KzxxIgthFaBu9uxjUDtnDqudPv00chmapFX7pc+F+9/yl7+op65EyWFS/b3vSfMCRFJQcfE/Wu67j7WITMBHHz0WjzzCqm68scQ2diyXVfUHO/1Qz1+JEiVHCnbAVpxzjtgUJ2Pa7TCZ9kW+/e2zKu+4gzF3UdEx8JB74MrPv9Eu0f3fleJZf4f27+d7d+7kLW+/zZt+/3uBlrfe4ns//5wf2rcvJa7hQCDA93zwgdie2vS//8ubX31VdFc6EA6nxjPYs4e3ffqp2DWK+9/84ou85Z13+N6yMs7b21OaBAJr14opcsKDgaiviW3CQ4cucmAzEM3xj4Ed+/91updkLv2htfI+pzPlHkzzK6/w8JVXcvfkyaIXHIKYohU5QK+tI0aI0k/hbduEUiab7LNaRWFV38KFIgELnlj5aadFz5+OIgJNCuJbupTX7NjB97vdyXUBZNiNv/0tD11+ucgcRYde0RfysGdgGzVKbChD34jdr7+ekgTQ+Otfi0FSxmoACMCVl/dd0mHGqumfo1FVXMycRqNblgeAh+Q777yUeiAYId3TpwtWjveGF/kRWCXBNAlAt1aQG7lvu2Lvc0+ZIlpJ97pbGQwKUoLB4LxgNEg9RYeljvOPFpDgtjFjRNkqzENtRHKRb36Tt9fW9vo11D/5JHcVFnbcW1yLcGkPO3/xDMh1RkIN3oPn5S0tTTkiaK+pEdeBabgMAnCazS95J01irIrc/SNAP6ycODENG3+kEAAxmnD/f/CD1HAz29p4cP36qNHQCBN3ozrjagmyixlSYNUqfrCpqXdGE/Syj7VOFwrVmXRTjDwoLklkIKrXpKfz5pde6p2pSmWl8EhwHmi+2eka+3gGpOxx0g6nWL4JVsg6dC7R+QAGgwP5AGxXTs4RKCNU5OQslrY9kRgaHsCeDz9M/jlyKCT6vAkDwEjfnTztmBLGt3zud7m0jSh/97viuzEidmu3GTow099h37rYrfngg5qeP2IqIC1x/zpLvsfrKEWews5YrYn2+vqUIIDaH/1I2jSAcJC8/JGsymw+Bn6j8TqrJALAHNlZUCBG1qR2waqrhdJ0bNPs4UOIFzm1jR6tWZ1DGP8XIC9Ek3u4yUSUmiZDxOfVPvywNvGKigoRk0Db7R5X0Y21khcbbvLyRP++ZBcEZCsGDYpO0yR44m6dbjarJIM/GkQAj8pKAIJLkwobfzDfT3QN9zgJuECA+/fLdft/9auo8SNOkaj1ZPqc+GiMFQOZAgO1Z2ZGK0Mn8hnESs37lixJeh082NIiPFAENRNui+SVeiyWjcxuMh0Lg+ElWcU/YFQ1Sd7eq/qOO4TxyNiaCQXEZ1fecIO8gJ/bHS09jWyyBF+DqNh89tki0NleVSXtGkKbNkVHaxn182n0wzOo++EPk54E/BdcIOJIMjxxGoi/y9w04h8O1AFwGgwfS4kBoEop3fim3/0uaW84lsnKyEtBZxVZxRkwKuM+tP33v9KCRzIrzMRHUSyHypDW996Lxl1kuL7x8nM0qmJ6cSAYTGoCqLzllmgcQMJGPGdOzhOM5vrHgN7gkbL+Ty6ddcgQvuc//0naG45I8S6JhRlk10Bo+/jjaAKJLOOJP0t0uBk4UMpGLiwRi2uQ+QxiJFZ5881JTQD1P/+5FALAErBn+vRXWMhgOAJBg2EwvaFBykYErDtnZ/P9gUByRv0jETEyiNJMkqsgYVkNZJjoRJvIN74RVRjJXWfiAbWq229PbNT/s8/E9MWuQe9JuMFYlTrY3Jy0BLD7j38UCVqOBKfkW8eM4Z6ZMz9gfprzH4UMesMhKTec5qSuyZPFjqdklIann5a57HLcdOi6//mfhOYsIMKNBBnp54/9HORCI1iaSKm5997oM5DZMOOomFRv5Td0aiXg3/8WA0WiCVHU+cjI2CnSfo+CRabCeM89N3nd/69/XTsCoO+AmxvauDE1lo1OsLEEpL4vgdWcAhdeKCXodbKktKpbb03emJTdLir6iphU4u+Bi9FNOBpFsm44EoAQ1UxW8S1eLAxIE+WLEaJn9uzEeTDPPBOdO2t0/vGgbqJGUHiGqIgjay/8cXWS3OvA6tVJq5PYmCWCluSyS7j+StH08yhMlXqzkzQHADv43MXFmiqfddQosc6bqBRhpFfv0pIACCAABKoSsnzp90f3ImgQgznCKy0tTVoCQNYipnXYkyHh+utQ9fdozJJGAEgC2rAhOZMuGhuxQ0rkzGulfILVid0Ttf0WhSTKNCYAsa8jQevpWFGwy3N3j0/C55yDaHjSbh9up8HBWVgoSy+bjucBTJPqAaxfn5wewJ490e2liAxrRQCjR4toentdXWICaPffr7kHIAKZjz2WGA/A7RZxBRk74E7oAQwZEp2GHTqUvARQUCCLABqx5n80JkmNAVx4YdK6W95588T+eM2Ub+hQ7p42LWGjT/0TT2hLAPHEruefT4wXtns3d+bna+qFYcnRv2JF8k4BampENqSUdGAxBTjWA8iXpvCDBnHf8uVJe7ORfqqlC40pUSKLoqIaDiLossq4HbMKgIIiNIdu+7//S1wgdulSMVBouQqAegfJKoiLIAdAUhAwwmw06h8FXX91t5AbrtkadCwPAOveCYtj1NeLRCtMLTSZPw8bJkbsROZ1dKS+avEMYgSA1ZNkFZQ3g/HLqA9I1+9itZMnf4mpU3EcRl5Aq4xiILZY1DtZ92OL7ac0BZDZCenw0ROjNVJ3EykoXlKmhQHFCCx89dUJPf+Wd9+Nnr/Edtkdz2DcODHdSOb9AK3/+IeoxSAjt4Ps/AsWtFi+RF4eC1gsp9AvQzK6AYsIL2Gfw5G0NxzzQekGhJ4I5P7LSIpC6audWkxjyNMQDV1JQRMtKKMm8jG06EmZpKtScUEpOtRDSHQqsKgLaDL9HVt/jwG5BrukVQMaOJC3/PWvycu4dG7CBUUFIInBMxgp8rxliHvGDEEwsjY0xY0H83UZghJmO2VmZGJHZqzYS9snnyQ1AaBytpTALjwso/FF5po06UsUFws4TKZ3HJICSbgYFHdMZgmuXSttLzo+UxjPsmXySOz998V3iKmMhLLSWKYT25k//VTaNXhmzYoWA5GwpbljO/PXv86TXVDZWEZgGi3CvAbDT5mbXP8jQNMAcg1+IasiMBQTgZ5kFiy9iJLfp5+e8Go05TSfE/vQJe+IRH77F/FRNFEkgM8hvRBlwXbskBuPsdnEKgmWShNJAvGqTPDwDrW2Jj0BeBcuFDGAhAdw6TkGjMZbWe355x+JtWtZYObMO6wyoo5YCaApgCzXMZGy51//EoqCm58IEhCFNWOlqls1mgLBy0gYCcT+Hp8XvPRSTc4fPRgwUiM9OxEkgOcoegiccQbfu2tX0usgtqfLTIxyGgzrRIvgw+ElD8BtMl0iywNAmieWNHBxyS7oW4hIfVlPCoPGqupiTo7P2f3aa9pdwKFDgmw7agN2MyYgCoKmp4vPCVx8sabPIN4gA0bbbRKIlTgXhH722YLcU0F2v/FGNAAoyRZdBsNk5oXRH45o3/AC6TvItDSEHgjmufHS4GJ9vQtGJAwnLa0jKo/tur0hSHTp6GsAY+hsdD32vrJYg42q227rHSJ++21uo0FDPAPsE+jsM4gZfrwnAmpRYHttqkj1nXfK3J6+15aTc9axU4BVq1jN8uWnO43GJruMSHgs+aLyxhtT5kEcOnCAV91yi3BFRY195AqcpEADfod5vngvzWErr7tO7DXoTQHhoiZ+vFuO2HF3okBvLPMs3lDDM2cOb3333d6Ny9TX8/AVV4h7H+9zcLK1cbjOWEqME3f13XfzVBPvggVS5v+xFYDPXGgMckxz0IkTBYgAPpLleqCtlqu4OOUeCJp6oNY+quDgGuIGEh8h46+hnDC2qm9/WyQXJZOgrx6KbmBKgM1Zuw477/hrkU5MJIbVkOYk62/Y9tlnvPKmm0RvRtEz4ATPQOzymzWL19xzT9IX/jye7EVSGk1XZJRGQ8l/n9H4yyoQgG3w4GNx5pnMds45PxYuoAz3A+2ayB2VkUSimSJ+8omYn6JTThWRQtV3viP246Mef6Kz+6SQmd8v5pjYyYfREbX9sJ24/mc/E12Ok75DcHu7KC7b8Oyzookp7j+eA5qWgORQWzCVBdchKxfCSggaDNtr9HrGQrfccgzCBN/mzWsQ+JHiBcTSSCPbt3MlSpQcK565c+W4/4hN4Wg2T7ZZLIztuf3246J527ZxSN2VtbNMbG9ERdYUWItVokRLaf3oIynpv4fFABqcBsMpKAHIguTyHxfDhzOnybTLrpe3E2tnku/EUqKkNyS0ebO8HZFIgx437hVbWhqzjRnDmDMv77hwFRSgU9BDsvIBcCKI0iJvXYkSJV/GZsQKB6bfEqL/CP56V678euDyy1lg0ybGvLm5x4WP4DaZSm2St2WKTTF//rN68kqUkCCYuVNSZypM55FVWLt9e2bjjh0MYI3Z2SdEQ1bWKc7s7EabrF1Z5OJgyck7f7568kr6vRyorhY1KWVVRYY378zN/dSdkcHc5P4DbE9m5gnRptOx4PjxT5dr4AU0S9oaq0RJqgjyG3bK7EtJduwyGL7jIu/eZTYLsNYnnzwxnnqK1d166/wKpMDKikjCCxg4MCUTg5QoSdjc3+cTMTFpJdGJVJAd6R45Mts3ahTzjhwpwJwXXnhiXHABcy1ZwmwTJtQ4ZXoBRAJgvrqf/lRpgpJ+KbJbumM/hGf27P/UPvQQq3344Q6wEM0DToYwzRe8JtODVpkEgNZHdIJI38RefCVK+pMgCC6y/iRWc0ZSn7ekZEt440YW2rCBhS67TIA1FhScFE1FRawmN3eCLSuL2yU2zQTziRptSdo4RIkSGYKNZpibi6w/WTUQEfwzm/f6CgvP8Or1zKPTdYDVLVhwcpx7LqtbvJh5i4r+bpXds50YEEzYlGQbUJQokSXYqr1TousfX/6zGo1P2AoLmTU/n9kOA6ujef5XoX7dOhaZO3eJrCpBh8cCMA1QUwEl/cL1f/NNYfxix58k79oem2JXWiw5VWYzOxrMnZ391cjKYh6jEVuEXbLrtcenAjJKZitRkiyC+gaIe2HLr7Rlv9jWX7fR+E49TeXrjgNmS0/vHMaPZ9b09EsRC3Bq0HQCzFh9111KU5T0SfHMnx8tNSeh8vTRoMF7igtt/47tBM7Y3rlzO4fSUtZGoA+rrpBZMz++YSFWAqr51VeVtijpUxJP+NGi/ZnTYPjIjaQfk+m4YPyTTzqPTz9ltTffvHEXurbIPnHUchs2TBQO2btzp9IaJX1CUMBE9rz/iOi/Xl+C0d9Fo/3xwDzLlnUJ3pkzmT0jI6BF7zZRxnnAALGBob22VmmPktQO+r39tohvdbW4bLc86JwcXpGV9VebTsesJwHzpqV1Cf7sbObLyzvfLtn4j27kgC60B3u5sKYSJd0V1DLEYCaCfhKX/OLLfhigm2bONLbOm8da5sw5IZiH5gddAbYK41iRnf2xXQMv4PCVAffMmUqTlKScoMsRKkqL3gaSg35OZNVmZfGK9PRna6dNY3XksdfheAIcd2ngq1A/cSKrKSrKtcW2GGpCArGGlGp5UElKGb/Dwa2jRokKzFpE/GH8LqOxvXHjxrNqt2xhtZdeymo3bDgh2P6Skq5j+nS2j9jDr9c/ZcWKgOxgRrzJQ2x5EEso/OBBpV1Kkt/4ab6P+n5aGL/YUzNhAtp+X1V34YWs7qKLmDieBKyOjLnLIOOvJ9eidubM0yuMxma7xE0Mx+v0IqYDs2apgqJKknfO/8kn0QazaNOuhfHDG6fBmL7rC/eMGcxWUMBQ9deWl3dSsBAZc3cRoS/y5+Uts8nOCzi6116MBJx5efxAKKS0TUlSCVqZocZFortLf+WWXxqIgxaLoWbyZFZZXNwpsCCq/nQTIRzNZmYzGF6xRdccNbvYeGAQxRNl9qlXoqQrgsYwZbH2cZoZP1z/zEzu0unuDNCoHzQYWMBo7BRYY25ut9FAaIoeB7r0+marRgHBo/MEygcN4k0vvqi0T0mvCgp6YlBCXT/ZS33HFPvMyfncPWkSc9Oo7uoCWCvNA3qKPfn5zGcyle6kE9HSC4iTAPr0iYpCP/6x0kIlmsuh/ft54KKLohl+48dL3dxz3DZ7Y8fyhs2bx7c99BDbc8cdXQKrJ5ehp2ggNBEJ+LOzH95FrohTi1WBo5YI0YUXc64DkYjSSCXaBfvQPr6wsKMFvBb5/YdjV3Y2r8zI2MDnzGH8vPMYX7iwS2B85crE4MIL2f7zz0eRgX+XgQQ09gTEzUAxkeefV1qpRBOpf/xxEewTy3xw+TUe+LCfoNxofDYwezYLFRSwoMnEgjQl7woSRwDARRex3ZMmnW0dP363TeN4AG4+CKDyhhuUZiqRKu2NjTx42WVi1Nd6vh/P9qvIyuLWrKydbWR3LRs3sub167sFdig7O3HIymLcaGQRs3laWS94ABXExt5Fi5SGKpEmTS+/LNbbO4p4auzyx5f7yPjbGqdOHcVXrRLeNyfvuztgnhEjEgrUGvekpTHrgAFbywcPFmv1Wt0YdFTBwzlQWak0VUlC5WBTEw9feaXwMlG/vzdc/g4CIB0PWiwz+KJFjM+bxzhNAUQMoBtgDc88k3A0Pfssa3z8cRa89NIH4CJpNifCJggindYPPlAaqyRhgj38GO13xffxaxnlP7qLVno6D+Tnbzq0YEHU+EtLewRG1ycNu199lZGr9Lx1wgRt2FKnE0kYjb/5jdJaJT2P8H/2GfetXBkd9c86q1dH/bh+W3W671ZOncr40qWMgwR6CMb37pWGZvIC7IMGMZonvWXTaL8AHlbNjh1Ke5V0P8hXW8srb7xRGD30SRS/6YW5/hHxLfI8PHl5j7WvXs0OrV3L+Jo1CQHj3/62PNx0EztExwPr1jH7Kaf8s4Lm6LLTI+EBVN5yi9JiJV0WNOmoffRR0UMPQT5UotI6wn+ikd+Wnf2cf/Jkxi+9lPENGxgHCZBd9RSM/+EP8vDmm4x//DHjr7/Omm699TRXSYnXOmaMdAIIbdmitFlJl6T+iSe4a+LEaCrvOef0vrt/+LKfXv97IgHmnzSJ8YsvZnz9+ugxAWCha6+Vi2uuYaHt21nVLbegnuCTNskEgO2XgXXrlEYr6cSQf4jXP/UUd02ZEp3nx9tzJYnhx/JbXnYaDMwuiwDKBwyQi9NOix5PPx3FRL8lewqAdODA6tVKuZWceI7f2Cj2jbgmT44a/sCBUaNPJsPH7lqD4QUXGvLIJIATlQuWAXJlLpF945Ca6V+xQmm5kmNkn9vNq7/3PTHKd4z4sUpTSTLac0d2Nremp2N/yzNukwnduOQSgCc/XxsUFDC3xbJUdjlxeAD+VauUtivpkJa33hJxISSKxef4Sefqx+pr2kwmHiopecifmxs1ftkE4CCW0QRmM45zpHsAp53GAxdfrLS+n8t+n4/XPfYY9y5YIHRC1OMnAkhGw48bvzUjgztLSm7ZfeWVLAiPWQsCOF6/MImYK/tGYmdWcNMmZQH9UFAjsumll8Tzt5EbDaOHRwi3Omnc/GMj/KKBp51IKZibu85TUsIaNm1iAa0IoJ5ccy3QUFjIqvLyzpW9SxDLgJHrr1fW0F+Mfs8e3vz66zxy3XXcVVQknn9Zko/2R3fvdel01T6LZXp1cTFzT53KGjZu1I4A7Dk5moBYmDl1ujWyHwhYH4EeJX1XDlRV8eaXXxZEL4yevL6OuT0GmCQ3+niwD16K1Wj8ZyQ3Ny2Sl8dCNEhqTgARi0UboGyY2XyNbA8AioCkDiV9S9o+/1w818All3R4eill9EfV8LOTd+KePPkxp8nEwmQfQK8QQM3Mmdpg9mwWKCh4xJqVJbU+GgI+u//0p+RzVdvauKe0lLtKSnjVbbfxZpqr7vd6lWWfQPaWl4sKu5Frr+WeWbNE4Y1dcfcezTVTzOgPd/lJTw8FSks3hi+/nDmyslg4N7f3CCC4Y4dmcM2d+0fbqFHymDUjQyhKsrUTP7h7t0g62Rlbe44rMraW+pYsERtPsOUUzSQOEVH0N2mvqxNbuOt//nMevuoq7pk9Wxh5fD6Phpp4tkmXrNNV/STQfP/zsNGYV7V4MQtecomYGvcqAdSjy49sxLoJuczmgMxdgTB+zAmTyYjaGxpEZ2PRyCSeXw5gzXfsWFFcIq7ocGdBFFjGhJfQ8PTTfM8//9lnCpygeu5+j4e3vPuuMPbI9u3ct2yZ2CAW33nXYfDjx385X05Rg++o2Y/5PsFjMv2oymxmVWTQkXPPZUEy5F4nAD8+WAMEdDqDE8sdMnMABgzg/gsuSB7jr67uyDrrzK4y7EKzDhvWsW4dNwYokWfuXFGHDsSAYpS7//xn3vbxx6IzUjK1TT/Y0sL3u92CuJpfeYXX/c//iGBdYM0a7p42TVwjSC9+fcjchFdolzk17E2XH6XyLRa/Jzf3vADN90EAETLupCGA6rw8+UDJcJNpi9TGIbGioFW3354ckWoyTJQnE8bfg/0PmCZgAxWIIB7tLoutb6PlNDwJeA2+r32Nhy6/XBhb9T338Lqf/IQ3Pvcc3/3667z1b38TBolAGhpWHggGhVfRXlPD2+vrRbkrGC6APHm45AeIvFBifb/fz/darbztv//lrR9+KEbv5ldfFd5J7Q9/yKvuvJOHr7mGBy+9VNRjxI46YeRDhhxBZHgNDwdej13LVnK9vcSXkfGr6rlzzwyUlDAfGXtlshFABCckG3SBXqPx91JXAGLVgJKhQxBGQLiwZT00/pOCjAiGBnKA1yCmEkQQ8enE4USBuAMMUoy0cK3xHEwmcW6o2egqKBCGi+mTk17TiBX1WLCOjq4zWK6i6RXcdHwPPK3Dv0N8z6mninZYeJ8wcpTO0qppbBK5+/BkBAwGt89kuiCSlcVqZ89mvilTmC8nJ/kIAH3EZCNgMJxKSrdbaoCFlBTG0NuR9X00WuI8pBp/F0hREAVABgnjt40bJ84PQTYQAnrXo4stDFeAXuPn4vdAWpr4GwThhGJj9Aa0LvueKhF+Ik2XxfKwy2g8PQRjJwKonjUreQnAQyckC24c6eLcJtNK2QqDkcl77rm9u3T1xRfCLdeyJbRCckT3RWxr5Mj3gxdeOD14wQXMMX48w5w/nOwEYB8yRCoco0Yxp8n0imzXC0ts1Xfd1WvGv+c//4nOe8k9VsbffwzfRnDr9QEa8TcHSNcr161jgdWrmWPcuNQggKoHHpCGahy3bx9mHzv2kF3mfBANEmn+2/Lee71i/C1/+QsvP+MMAWX8/cf4XXr9AXL57wmZTAP9ZKi+0aNZ5KKLWAAeQHp6ahBA82WXycOGDSy0bNltoiy4xCmAWD8vLBTrzFpL0wsvaN8PXqF3jJ48TStiKYipGI3/Hxl4doAMVBh/qhLA3nnz5IAusG3OHOYeN65Ki+W/yptu0tz4ax9+OJqPPmxYclSPVZAWTMV+fRg+GeH/8+TnF8AgYeD+VCcAW16ePFgsl9hje55lL/+1/O1vmhp/+Oqro0UmUDq6FzvFKGhQkjsa3X8prNOV7F60iHnJSG2ZmX2EAOgEEwq6MThilxPdQLf06P9ZZ3G6aZpuRfXOny+CjiJ7LUkLTSj0rDoPIJKsDIZnyXgnuwsKWDUZZSN5t57iYqHjfYIAAjNmJBZ0sUE6uk2mtXbZiSBkfDs17ATU8s47It9AdItJgWITCl1M4onl7JPRtZDh/5A8V52XjBj67MrPZ5VkhH2OAPZdeWVCsf+aa1jb1q3MZTKFbcgGk8nU48eLpTctkn9QZKQsVkJaBfv63ho+BiuXxVJBz/ZbZJBjgijKSUbnIQMMYCNbXyUA98iRCYOL4KULppt2vV12phiNwDBI5KBLzexzOLhv0aLkahWlkJhdeuPGiaxGMrA/OiZMuDA8ezbzk7GHkL3aXwigetWqhKGGEJg0aXBFevoBrToBt/z979KMv/5nPxOZfcLlT6b68Qrdntt3HLOy7O65c+8LFxXlwdhQmCMEQyUDDPYnAmh7662EYf8777DQihW/LscWVsnsjU0u2CIrJaV3506xT32nWuLrO0G9aDyqleb1z/kKC5fDUw1v3swqyTj9ZIR2EMDMmf2QAOikewxy/fdnZLDqnJySMmwUkR0ci6X+Nv3ud4ktWLFvH6++++7o1luM+rGphjKiFJ3XR0f8fS6j8RWnxbIlWFAw2k0GFSJjRI2K4Nq1LDJ9OvOjcG1/JQDRbrgnuOQSxrdtY3zpUuYcO9ZXAaaVSQD02ci6c02alFDjb/jVr7izsDA61x89Wo36qRbBx7bl2OBDo3ybS69/lYx3q8dsHufNy2OuiRNZqKiIuWHcZMAwRkUAIAA64R4BJ3PDDSw4f/6DuxAkk/2wY0t/qKHX4+o1zc1inu8uKenoFSeSetTyXmpU1o3P6VF1x2x2eXNzn3bodOuDubljwjDI+M5UMi4XGVcQBqYI4EgCaCot7RGaZ8xgVWPHTqlARFW2u0yfL3LuaaTmBw/2aNsuKgdhOU8Y/qBByt1PlS238SQdgwHz+b8SYd9Fv5/pJ8OpJgN20FQ0RAYVIsPBGr4igK8ggP2hULdxIBJhu994g+0aMiRi06KmW2zu3/jb33Y9gy8S4Q2//CX3r14tAnvJ3CRSje7R0d0eq6kX+3kbGfxHDrP5IRrZV4RnzhwpXPtY30n/5MmskozZMWECCyoC6EJJMPry7qB69mxWv3Il806f/lurFsZPhorttl1J+0U7aNSWD23eLLYMd5TjRlksNdonRZ694/CAXWwuj9ek9C630fgiGfmtdoPh3KDZPMqPdtlkiEEY49y5ous0DATNZxUBdDcP4Lrruo7rr2fh889n9mHDNqKElCbGFDPgk236QbFLVMtFUUz/ihUddfk6mkkkYV15JxJSiECt2dlt9LBt9LNDR7i8fWU33WGDhC0+ymObuMGwz2Uw7IKx03vu8hQWrgrNnWuGQXtJ6cN0tJEBoLyWIAAa9QOECA1AHjoqAuhpEJDzbqHh8ceNO+NLZRoA8/QAue/xctttn33Gm197LVp2+pvf5N6FC0VWF/ID4l1hkbmX7LXlEbn2Wiw1gaIiox0KbjJNcOn1C11G43YyjEfo3N8gBfiC3tt8NCE6Ym6yPUYkHTX7tLzewzI+7TFPzZaRIQqJovCoIzqaI7haT+f1b8KL3pycez2TJ2/xL18+z56ZmQZDCZExW2n+7i8pYZVLljA/GYyHjCNISg8CCCoCkFQRaOHCzmPRIlZNCJeWnuK0WAJalneGQqHXOwDFgudxRP38wYOjHWFlL0MmeK5blp7uqZ0zZ3xDaSkrJwXBLkoiAOYlRfHSgxf/JyUgxR1KRwv9fyEpxBan2Xw33Yef0ntfI6L4BymIwwEjMxr3HrED8/DXsQ0vKGpx0nsU2wJbgfcdldJ9HM+khRABSdF5vEcG+LJn+vRHPLNnf9uZkXGxMydnnmfqVF1ozZozHbHrC9MRm8ZCW7Yw8tKEYQfJAKxkvD4yZBgHDNoDI1UEIJcA2pcv7zQ43bAWutG7zjrrz8ij1nIfPNbl8Z1WlLcmd160ikrVstMwRDIuZ3b2f6xZWedAQVA6uuIwAvBAeY8kAHF0QjHxmpTFQUrjp/dC2ctHjmTB1avPDJ533mj72LG5ZLiz6DMWuc3mVfSdlzv1+m8S4XzLnZ9/h3/ixHvJMB+mz3mU8GPCY4SfEX5CeISU7gc+k+m+cHHx98i47qS/v5F+fgXNxdeTsi8PGAwLyY2fRj/T0+cNo+Pprpgh2EeNYqFVq1jossuYc/hw5oIRkQFFNmyIdoiGsdN1+snw0BrLjlFfEUAvTgHmz2ecLuqkoJPlNPLvOe885Po/VIG5mwpidbstdMXw4dw/d+4rtcuWsfIRI1gVKV6nCYAUSBAAKaSDFMdH7w2CAMjYQqQYoZUrmX3MGEYEwHzox0CK5YAyEWxkHNjsUkvP3Emv8XmuuJLFXgvQ31XR37WS1+cgI8NnCSVESysoNR2t+Ew6Yp+8M3ZuMAJ8d4CuK0CG4CQyEARAbn143TpFAMlIAIfoCzidKMfxeKDfHaITOEjwZWZu+ZyM36ki6N3PSSeviYzlx5EVK8SDLjvzzMQQABFJcM0aFiTjs6elCaP1xsqydxBAZqZQxCr6Lie9PiEBxJq5IM8DXsbhBBDCfP1wAkAkXhFACicC0YjBN22KZvWRAnUcAbyJXLdaJFhkZs63q2YQPWsakZXFSfGvDNN9DS1YwOroWDZkiCIARQC9RwCNMPhrrmGc5mycvrjjCIAYrroKO6Zyd6anH1IE0INtqDpdZVCvn4tsNT8piCIARQDJsQqweDELz5jBwnRRNWjjTQ+9kf5fSyccopMJT5ky2mUyNdj6W5+3BM35rWPHIpvt7YDFMiKCOTQU7vzzFQEoAkgOAgjPn8+sdBK4+bhhfro4PHx0Mq3Izj6rLD3dK1ocq3TZzoPm+Tb04cPS5fz597rpnkKhwnjwigAUASRVKjCdiAs3CDe5oICFESWeOJGFzebT6MZ/odz+bsz3scRXVBQg5VtYuXUr86DUFN1fRQCKAJKeACqxu4++yJ2T82+bMv7uRfpHjPhN+JJLzgwuXcqCK1cyN91TKIkiAEUASU0AKJhQSSfgMJs/tGqY5ddXOsfQ6zq30bjeRQYYoZsbWLiQBcnYFQEoAkh6AkCppCARAD1IZfzdcfn1+ue8RuMIKJ2TDDBMxhjAQ1YEoAgg6QmAbiQRwBn0Rf9R0f7O5/GLe5WVZfWvXLnMR4qEwKlHEYAigJRaBlyyBA9xOCn0LhXw69wcH7ERejD7yLjuIiU5JXzFFcxHxuIlo1IEoAggpQjAV1z8NWdhYa1djfxf3YY8do+cOTm/DhQVZUboodqxZXXDBuYjhRRNURQBKAJIJQLwz5//BJpfWONFFtV6/wnLU5FCPU9KVBLAvggsmZIiKAJQBJDaewGuvZa5Tz11Ol3o70RRCTUNOCKyTw9gN92Xn5Li5tUWFbEIlEcRgCKAvkIA9Vu2MPfpp7N6PJCSkgJSksfoSxux917z6jJJMNo74l1kDIadZDQ3hmfOHOXD3nt6CNUw+okTFQEoAuhbBOAaMIDVk5KGCDghj14/wlNaeq2roODfIIH+4BXYo7n7qG7znL+oaBkUG0ujkTlzmJdGfkUAigD6NAHU4YHQheKE3KQckW3bmI8Ul5R9qttsfpSUyBbf1prShBCrnWeLzetFUE+vf9ut020jBRiFBx0kZUKhCyRHhenheZUHoAigXxEAbgY9HC9uBpSMLj6mHKWkmI/QUewRiG1zTbllPFLCZjKul+k6rqAbnC1q8BHCc+cy8npQ9UgotiIARQD9ngACKE6JBgxQDBgEKb4fmYM6XR7d4GvIMF4gBfMlWxnro7yUg2QAH9ON/JEvM/P8yosvHl5D1+aBYuO6YHCorUdKhQetCEARgCKAExBAiG6EN6Z4ASgHFMxkOsVvMBTTKHolKcmTpHD/JDQdMb8+upR0AjwH+1HTkfhrumFewhv0+vt03itdJlOGK6akQVL86ssuY1V0rW4YnCIARQCKALpOAHCZ/VAu+r09phQ4aSgJGTxaNg2hv5nqMBovpr+7iy7iaVLCdwnlpJD1hHaxwoB19q9YbTiOd9FK/4/Q5/8f4Y8OVLLV62/yFxSc5zabs3Gu3pjiu2FAQExJA6T4VXQDq0gpFQEoAlAEkCACwE3zH0kA0b5teBCxCxFKrNOd47RYDC6LpcSRmbnCU1i4gR7eVfQAvkUXejvhe4T7yODuoSMaP36HHsJ2evhb6HPX088WkVEX2HS6TPJATofi2GPKCINEFVycKx68IgBFAIoAJHUGUlBQSH2om6CgoAhAQUFBEYCCgoIiAAUFBUUACgoKigAUFBQUASgoKCgCUFBQUASgoKCgCEBBQUERgIKCgiIABQUFRQAKCgqKABQUFJId/z9CbiEQtcc38AAAAABJRU5ErkJggg==;" vertex="1" parent="27">
                    <mxGeometry x="17.939999999999998" y="22" width="36" height="36" as="geometry"/>
                </mxCell>
                <mxCell id="49" style="edgeStyle=orthogonalEdgeStyle;orthogonalLoop=1;jettySize=auto;html=1;exitX=1;exitY=0.5;exitDx=0;exitDy=0;entryX=0;entryY=0.25;entryDx=0;entryDy=0;curved=1;" edge="1" parent="1" source="5" target="15">
                    <mxGeometry x="120" y="40" as="geometry"/>
                </mxCell>
                <mxCell id="50" style="edgeStyle=orthogonalEdgeStyle;curved=1;orthogonalLoop=1;jettySize=auto;html=1;exitX=0.75;exitY=0;exitDx=0;exitDy=0;entryX=0.75;entryY=1;entryDx=0;entryDy=0;" edge="1" parent="1" source="15" target="2">
                    <mxGeometry x="120" y="40" as="geometry"/>
                </mxCell>
                <mxCell id="51" style="edgeStyle=orthogonalEdgeStyle;curved=1;orthogonalLoop=1;jettySize=auto;html=1;exitX=1;exitY=0.5;exitDx=0;exitDy=0;entryX=0.5;entryY=0;entryDx=0;entryDy=0;" edge="1" parent="1" source="2" target="19">
                    <mxGeometry x="120" y="40" as="geometry"/>
                </mxCell>
                <mxCell id="52" style="edgeStyle=orthogonalEdgeStyle;curved=1;orthogonalLoop=1;jettySize=auto;html=1;exitX=1;exitY=0.25;exitDx=0;exitDy=0;entryX=0;entryY=0.5;entryDx=0;entryDy=0;" edge="1" parent="1" source="19" target="24">
                    <mxGeometry x="120" y="40" as="geometry"/>
                </mxCell>
                <mxCell id="53" style="edgeStyle=orthogonalEdgeStyle;curved=1;orthogonalLoop=1;jettySize=auto;html=1;exitX=1;exitY=0.5;exitDx=0;exitDy=0;entryX=0;entryY=0.5;entryDx=0;entryDy=0;sketch=0;dashed=1;" edge="1" parent="1" source="15" target="19">
                    <mxGeometry x="120" y="40" as="geometry"/>
                </mxCell>
                <mxCell id="9" value="" style="group" vertex="1" connectable="0" parent="1">
                    <mxGeometry x="680" y="70" width="200" height="80" as="geometry"/>
                </mxCell>
                <mxCell id="10" value="" style="group" vertex="1" connectable="0" parent="9">
                    <mxGeometry width="200" height="80" as="geometry"/>
                </mxCell>
                <mxCell id="2" value="RabbitMQ" style="shape=ext;double=1;rounded=1;whiteSpace=wrap;html=1;" vertex="1" parent="10">
                    <mxGeometry width="200" height="80" as="geometry"/>
                </mxCell>
                <mxCell id="3" value="" style="shape=image;verticalLabelPosition=bottom;labelBackgroundColor=#ffffff;verticalAlign=top;aspect=fixed;imageAspect=0;image=data:image/svg+xml,PHN2ZyB4bWxucz0iaHR0cDovL3d3dy53My5vcmcvMjAwMC9zdmciIHdpZHRoPSIyMzYyIiBoZWlnaHQ9IjI1MDAiIHZpZXdCb3g9IjAgMCAyNTYgMjcxIiBwcmVzZXJ2ZUFzcGVjdFJhdGlvPSJ4TWlkWU1pZCI+PHBhdGggZD0iTTI0NS40NCAxMDguMzA4aC04NS4wOWE3LjczOCA3LjczOCAwIDAgMS03LjczNS03LjczNHYtODguNjhDMTUyLjYxNSA1LjMyNyAxNDcuMjkgMCAxNDAuNzI2IDBoLTMwLjM3NWMtNi41NjggMC0xMS44OSA1LjMyNy0xMS44OSAxMS44OTR2ODguMTQzYzAgNC41NzMtMy42OTcgOC4yOS04LjI3IDguMzFsLTI3Ljg4NS4xMzNjLTQuNjEyLjAyNS04LjM1OS0zLjcxNy04LjM1LTguMzI1bC4xNzMtODguMjQxQzU0LjE0NCA1LjMzNyA0OC44MTcgMCA0Mi4yNCAwSDExLjg5QzUuMzIxIDAgMCA1LjMyNyAwIDExLjg5NFYyNjAuMjFjMCA1LjgzNCA0LjcyNiAxMC41NiAxMC41NTUgMTAuNTZIMjQ1LjQ0YzUuODM0IDAgMTAuNTYtNC43MjYgMTAuNTYtMTAuNTZWMTE4Ljg2OGMwLTUuODM0LTQuNzI2LTEwLjU2LTEwLjU2LTEwLjU2em0tMzkuOTAyIDkzLjIzM2MwIDcuNjQ1LTYuMTk4IDEzLjg0NC0xMy44NDMgMTMuODQ0SDE2Ny42OWMtNy42NDYgMC0xMy44NDQtNi4xOTktMTMuODQ0LTEzLjg0NHYtMjQuMDA1YzAtNy42NDYgNi4xOTgtMTMuODQ0IDEzLjg0NC0xMy44NDRoMjQuMDA1YzcuNjQ1IDAgMTMuODQzIDYuMTk4IDEzLjg0MyAxMy44NDR2MjQuMDA1eiIgZmlsbD0iI0Y2MCIvPjwvc3ZnPg==;" vertex="1" parent="10">
                    <mxGeometry x="20" y="18.85" width="39.94" height="42.3" as="geometry"/>
                </mxCell>
                <mxCell id="8" value="" style="group" vertex="1" connectable="0" parent="1">
                    <mxGeometry x="160" y="160" width="200" height="80" as="geometry"/>
                </mxCell>
                <mxCell id="5" value="Azure DevOps" style="shape=ext;double=1;rounded=1;whiteSpace=wrap;html=1;" vertex="1" parent="8">
                    <mxGeometry width="200" height="80" as="geometry"/>
                </mxCell>
                <mxCell id="6" value="" style="shape=image;verticalLabelPosition=bottom;labelBackgroundColor=#ffffff;verticalAlign=top;aspect=fixed;imageAspect=0;image=data:image/webp,UklGRgIaAABXRUJQVlA4TPYZAAAvVUgVEhcgkE3xF3oCgRS22QLZ5P5iWTUhQcJi/zcDvutIDAKgbQNbIP41v10BETEBmcljPKe4gexsA0C4knRNMkpmRMmGWXdS/K2kxcjlOUoqQfVAhxWiTljYdlMliSTdSJIkSZKniyQQBAQJQVLjy1TwvPekuxcW0f8JoCPbdtXa2lbV/ci5m0Bw3AriFxGwVCoiJe/nVqgTep+MxKcw3Ty+Noa9t/COIvo/AZIiSZIkSdpF9ggABSEgObQAnvqK6H/IbW07bCSAIUthP6cEzuxuPwzYgAC+NhUv9JlF9H8CKNe2GgdgfuakgJSQPlSCFg6HoxVLlUEpajaDbfh4R0T/g24jSZYkK5R4+pQIRdQmEkMlOWKkCO9Pj749QEU6sxH9Dze17YYNtUDIkKfjo8mjYAiKEOv/doro/wTAjSQ3klTRIjwh/IUJEODqPYOGFtH/CWDFZzKJGc4oNCahBZxFSMCHUShGAd4gdACKUYA3Cid7EL/AGYXGKMAZhW/WoL9XjAK8UShGAQej0BgFOFMQHvhmFIpRgDcKxSjAGYXGKMAZhW9GodgBPOmNwskowBmFxijAGQVvFIpRgDcKjVGAMwqNUShGAd4oFAOQF4EzCo1RgDMK3igUowBvFE5GAc4oNEahGAV4o1CMAg5GoTEKcEbBG4ViFOCNQmMU4FA0KBYKg+JQNCgWRYNiUByKDopF0aBYFIeig+JD0aBYFFUxKA5Fg2JRNCj+oDgUHRSLokGxKA5FB8WhaFAsiqoYFIeiPxSLokExKA5FB8WiaFAsikPRQfGhaFAsiqoYFIeiQbEoGhSD4lB0UCyKBsUfFIeig+JD0aBYFPe2eK+D4lA0KBZFg2JQHIr+UCyKBsUfFIeig2JRNCgWxaHooPhQNCgWxaHooDgUDYpF0TyohBgUh6I/FIuiQfEHxaHooFgUDYpFcSg6KD4UDYpFcSg6KA5Fg2JRVMW84xXrUPSHYlE0KAbFoeigWBQNij8oDkUHxYeiQbEoDkUHxYeieT+NuSiqYlAcigbFomhQDIpD0R+KRdGgGBSHoj8Ui6JB8efhZuhD0UGxKBoUi+JQdFB8KBoUi6IqBsWhaFAsigbFvJhlOBT9oVgUDYpBcSg6KBZFg+IPikPRQbEoGhSL4t5q5Omg+FA0KBbFoeigOBQNikVRFYPiUDQoFkXzSFmcQXEo+kOxKBoUg+JQdFAsigbFHxSHooNiUTTPQ0ItikPRQfGhaFAsikPRQXEoGhSLoioGxT1NEKxBsSgaFIPiUPSHYlE0KAbFoeigWBTNo/Ti/UFxKDpPkiD/vsgIDeY9RqhwnyMHHdxr5AAlzmMM0OL3FgP0mJcoFjkfQrHJ/Q6GXdZXMCyzP4KObfz4CXSwzvkEkoV+AclGK3/FSjd+xVIZvmGrk71hr9HrWEwFr4PFbvCC1TJ2yW4ndYftMnPFeityl/1u4oYNn7w1K564dezox7QFS66wJVverB32fJJWLHqCVqyaMRt2fVM2LHtD1rGtX0Wsg3VPxJKFM2DJxidfxco3XsXSK1zD1jtbw96ZrI7FTbA6WPwGK1h9xSrZfafqsH1mqlj/RKoQMFGDgpWnQcKNU4cGP4apAxEnTImMWUp0rCQVQm6QCikZo0HLSdGgJjPUIUdFqAM5N0KJoCdAiaKTn0JTpqcQtcIzqLrZGXQ9yWmEneB0KPNjbgJpv+02ibZlrzmo6/eZQt5ml7kI7HaYQeFv+0sjcdldOjSC31sCkRtl5Ms3conMThUzoJxE52+KmAHtFEIXNUy4q5pCaq+DKUA/g9YnDUwDfq2YQW0n3jjgUb10yNUINw54XC0dyF1EywOeVUsiuJcrX/C8VhLFT1LlC5ZUSqG5k2nGsjopRG8kmrG0SgbZ5ZmwvEYG3b0wU4CmGuGLKNOAl+qjQzk4OcYBL9ZHIH0jxTjg5epIxJchD1ihNhL1vQD5glUqo5C/sJcvWKkuCgM65masVhWDAxvWZqxYE4MHHV8TVq2IDhN4rqYAnXVgwsLTNGDtekhseGBoHLB+NSQ+bNgZB2xRC4UTHS95wDaVUFjRc5Iv2KoOBi8WPvIF21XB4MYDFzO2rIEOOzQ8zNi2Ajrwo2NgwtYVkBjSb24KUF/iyLKxaQCD4hWePGxpHMCidIUpm+2MA5gU7mJLt5E8gE3ZBl9+20S+gFHRGmOWDeQLWJWswxnwq5vBrGSBNZuVzWBXsMScbk0TGJbr4M5v65kCKqKwZ1nLNIBnqS4G9asYB3At1ODQ0wrGAXzL1HjUvSoP4FykDpM0r8kX8C5RByYtr8gXcC9RYlO/3Az+BUp8elpqhoTyFE51i0yQUZzCqs0CU0CVDF4tT00DxBRmcKt/bBwgaK4Ou5weGQeImqoDv7pf5AHCpkoM29zJF4ibKbEsEeULBE5UeNbTDJHzFKYtEDrN5ceaZfhLaP4SOpxTfquWDox7dW21JMa9EVVLYtwPqpfCt+VI9VL4tjiql8G3V7pfJYNvb1QxHb45U8V04NpypJpJXHt1VDOJa6/0eHUUrv2gqilce6SqGUxbjlQ1g2mvjqqmwzQ3WrImOvDsB1VO4tkjVU5i2eKocg6WvdLi1VBY9ka1c7HsmWpncGw5Uu00jr06qp0Ox1zpxVUQGPaD6icxbFD9HPxaQf0Ufm2xn4tfhx+pvcGvjwUNfg0W1GGXEgvqwK0tNpS4dfjBmkvcmqyocGuwosKsLVY0mLX56VobzPrYUYdZkh11YNUKlpRYtcWSEqsOv1NjB6s+tlRYNdjSxakltjQ4tcWWBqcOv1lZHU5J1tSBUYM9JT4tsafEp82v11Th08emwifJphqXVrCq65IWu3pNMvyRRD+PPNYVFgnW1Ri0xL4eg7RY2OuP4U/leeyR7CzcESwNb5ZY2uON5u+lea0x7O04I1lc+KKCzWHLEpt7bDH81SyvKx7LO6YItvdZooL14cgW62tHDH87yWuIxAGvHwILfG4o4YEwQ/MPcmy8OLjgeiGxweuECnzwGaGEEcIHzb9JsbHhwwqPDQIvvCaowAzHAy3cEBYY/lmKODDxw+OAwBBXvxKOOPI1/zHDUG8wBeInpni0q8AVV7oStjjKNf83wU+4hzPQPXFGy1aBNa5qLbzxitb89/w+zRJ7hGSBPRrBS/jjCtbCIK9ewzek98mVeCTEqsAjjdYlTPJo1XxIdq9UD58cpRKjhE4VOAWZWzjlkan5nOSuSg+zHJECt4REJeyCwi3s8ig0fFRuV6DEMUeeCizzqVPCM4jbfFlqLc7DNVebxDavMhX45hOmhXFCl+b7MmtkfVjnyhJ45xWlAvN8mrRwT0gyfGVijaIP/zyCVGCgV48SDjpyNJ+aWKgxmAgxExM9WlTgoitFCxsdJZoPziuEeDgJHQMnPTJUYKWrQgsvHRGGz07r0+BhJyQM7NQKlPDTFaD59qze/Q2W+taXeCqWV4Gnmt23MNXdXbNBUu/qHr76NhcYK/ZWgbGatbdw1rO2YY+c3q09zHWWFrgrVlbCXmy8hb2ejQ3bpHQXljjs7CuwWGyrhcdYdrNSRs+yHi67u0psdjZVgc++RbUwGnseFkuo9/SwWlJT4LVOSSXM1uuohduCiob18snQcOK3pKHAcJ1+SjiuV0+zYz5BOw/PZSg3MV2rmwpc16mmhe2iZoZN0wmKeTgPeg2c16qlhPWSVlp4Lypl2DeboJPEflBpYL9WIyX8lxTSLJ1M1MdwAr06khuAMiu4gayMEkeQdDGsnkuniscd9JoIDiHooYJDyFBji0tIahgMSKXTQnIMvRKCawgqKHENGRpsXMik1cBwEJ0CkouI4lVwEkG6EjcB4RsvEmmFe1xFki04iyhZBXcRBGtxGJB7cCSPVq7kNJJYwW1EoUocRy9TY0seEHk4jyxSch9JoAoOpJOnxIX04jTmpBGkedxIhrDJkSRZKriSTpQWZ9JL0liURRAkOZQMOYNLacUocSqdFC1uJQoxGJVEkCE5F0hYwbm0EpS4lyRA41YOkb/HyQT2kpsB8xXcTMtci6NJvDWepRBZe9xNz1lwOOC7xOFkvlpcTmJrcC6DjqvkeHqeKriewFKJ68nguLEvgcTRcEAdQ8kF9exUcEKBmxYnlMFsY+L8LTOPK+p4Cc4oclLBHQVGWhwS+BysnL7l43FKiYsKbikyUeKYAg+Nn9ODxeGcWhaSe0oMVHBQcXslLqrfnjgp2IRsFJJR6IxCbxSCTciwCckodEahNwrBJmTYhNYodEYhGoVgFGATWqOQjEI0CsEowCa0RiEZhWgUeqPww0RDUVBsKA4UwUT/MFFQbCgOFMFE/zCxoNhQJBTx63/73/7/+t/+t/+//rf/7X/73/63/+1/+9/+t//tf/vf/rf/7X/73/63/+1/+9/+t//tf/vf/rf/7X/73/63/+1/+9/+t//tf/vf/rf/7X/73/63/+1/+9/+t//tf/vf/rf/7X/73/63/+1/+9/+t//tf/vf/rf/7X/73/63/+1/+9/+//rf/rf/v/63/+3/DAsKvaBoKPSGQgHFBwolFB1MqKBQQtFQqKBQQNFQKKFQQPGBQglFBxMqKPSCoqHQGwoFFB8olFAooCgolFB0MKGCQi8oGgq9oVBA8YFCCYUCioJCCUVDoYJCAUVDoTcUCig+UCih6GBCBYVeUDQUekOhgKKhUEKhgOIDhRKKDiZUUOgFRUOhNxQKKBoKJRQKKAoKJRQNhQoKvaBoKPSGQgHFBwolFB1MqKDQC4qGQgWFAoqGQm8oFFB8oFBC0cGECgq9oGgoVFAooGgolFAooCgolEahg01QMgo0GIVsFOgvo0DBKIxGgaJRyMEmUDIKFI1CNgqUjAINRiEbBboaBRyMgjcKjU0Yik2gjM/ZGQQCgP9nZw563P19PtqCeA/A7/PZEKQHAJTb2Qq0j339nE0APQfgc3bvv7AEgP9n9+aLCwH4fT6+89JyAMrt/LZrXwKg3M7vOXrV18/5HRdWAOD/2b3b4joA/D8f32rdagD8Ph/fZ+2aAJTb+U2WVwag3HLDKKzu65P71W8CO+1udVvBTr9YaUOY6bcqbwvrjCtFm8M6uVA9A+8ntykygZ12kxIfmOnXqGUFM+MOETdYZ9ygwM/7yfWJPOFJuzqJLey0e9Nyhpl+aYg5zIwrE9jDOuO+RAneTy5LJwV22kVpBcFOuyVZFsz0K0JBGqwzLkgvENbJ7ehkej+5Gkku7LRrkUXDTr8TJB1m+o3o5cM64zpEFWCd3IWkhfeTi9BqAjvtEpAysNOvQFAHZnr9RY1gnVF8SSnvJ5XXKgZPWtWRbrDTai5oBzO94KKCMDOqrdMR1hml1qrp/aTOsqrwpNUYBWVhp1VYry/M9PLqVIZ1Rm0lrWGdUVhZce8nVUXKw04rqV592On1FGsAM72YUiVgnVFJbT1gnZQRVcX7SRGF2sBOK6BYIdjp1ZPqBDO9dNpqwTqjbqhmsE6qJu72flIyeT/stHLZV8RMr5V1S8yMQumLYp1RJYqrvp/UyLkunrT62DfGTiuOujRmemX0vTEzykJXxzqjKM7l308qIg3ATquG8gA7rRSWDZjpdSAnsM6ogvAC66QE0o73k+9XlmCnfbvlCnb6h5MxmOmfLazBOuObpTtYJx9sG/R+8rWWSdhpX6p9wk7/TAqnMNM/0jEL64wvtP16P/k85RmetE/TtmGnfRc5h5n+VY53mP++Sdr3v45fUCwoREVAkVAUFAsKURFQJBQbigVFQ6GA4kCxoSgoGgpRcaBIKAqKBYWoCCgSioJiQSEqAoqEYkOxoGgoFFAcKDYUBUVDISoOFAlFQbGgEBUBRUJRUCwoREVAkVBsKBYUDYUCigPFhqKgaChExYEioSgoFhSiIqBIKAqKBYWoCCgSig3FgqLHVMIopgRpz5D6OXtI9ZwaEp/TM2q8d0b3QWdEfFBOaPHgmtB90ZoQX6QBLZ4c85k35XzOm2o8izev8cyjNJ56VUwHr87hzLP2cOpZazh8Vs+m8e4YTT3sjIYP25NZPLwmc1/Wk+HLNJjF089c5m05l/O2Gsvi7Wss8ziNpV4XU8HrcyjzvBpKPW8NBe+fSQsQIykBciQUYE+kIeCayFWgJ0IFFPNYSHjmcTXY8zga1DgWGvY4RgSN46hwpgEVcxgjQw2jZFjDgI6zaCFiFCVEjoJC1CQaQq5JXCU0CUoRc1hImXO4Wuw5UIs1hoWWPYYRQzGFo8YZwkLNPYSRo4ZQcvQQoOcMRpAzghIkR0BBagINQdcEShFNgJKE/wtJ0/+rSflPTZb9C1HtH1XC/aNKmr9QdZs/sizzS5Y2H7qG9SPMsb6E2dZD2HK+lWnnSxk5T2mO7w1p0/erTflObZbtC3Ftv+qE60edNH2hbpk+8izTjzwyHfqG5SNQWl4Cbcsh8HK8FWrHSyGF4ZTo+N2QePt9NSq/qVHbvRDZ7qvScZsqpdkLlcvskWmZfWSS1wudw+oRKq0uocpqCL2cHqX03B8vv0qqeK79olT5nMqthtT7Qb3MKq3WY/9JHV5Rq35SZdVC7HhS6dRV6zzaYRTV2o/q49NC7XpWadPI1Q8rXDpy6emPSQu9z8N6ezSC5dN6WVSC1eNtEQRfj6sMGsX0vF7+lGTxfIc9kDyfV7nTmtUXKM0pzdY3KLyhZvqKjzUN0eMblM5c1fIrFMZQtf0d7ctC9fUdettyZfMgWF/lyAYJ4h9lofsVBPZNRrgZBeuTHOEsjMsXgfAeBvZBRjnEgX6Pku6K4/I5IL3GwfkarZ0Fgn6M0m5EgnwLaodQ51M0xJdI2F/iqqehsD4E1bNY/h0W6o/n/76F/RmufAiG9RWonwRz+QYL/TUY7BuMATMa9BMcA0Y4lw+wMNDD4XyAcQASDlp/WXDFg5QPC2dAr348sIDYxZcHHhFSOz1ASC+9YeIVEVZ5uaAhsQqnCxbTpeyFiyMmrOxrA4JCq6YPEtSl5oWPGhSn5jHCokJLPkaMsJCCF07GPQWPFRIWu96yQuNCyoWVM7BXO16MwNjFlhceGatWmCmRXSptN67IsErLjRkaq1C6YbFdymy46bFxyrx2IDi0SvpxBYfUuPBTo3uN1xB78sdXsEs8hozwkAIXjsb3AscSCQ+r71ii8bHKg6WWwKsbT0YCWHHlCTJAa4OpksGlsnZFM+BUVq7MFNDC6MrIASmr4aonOWVdWyA5sKuiL1cSSE0LX2cWr+kaY1mwS6IxngaroIWzebygseZKA6vnWKN5sKpZWGuJXIoZb0YinGLKG2SC1gJzJZNLJeOOZsKppNyxVNiF0J2RC1JGw95kXkb5I7lgVdAfTYZVw8Lfmc1ruAaNbLASaJCngxawcFjSufAfi650OPyPRfORH2JB2S8stoQQ8uORZzzkyyNkxOYOk6+MEObjkqZ05uWSpcQmDpdHTizabROSOu3ySXLCWNMnTYrFueGzZXWhfI0aWWGUaRTSQgkvnJa0LnyvVZoWh++xaubFZruweiSGkB2vPLOTPV5BEmNzhdlXZiym49ZM7UzLLUsNIwq3PTeUZtuF5C4sy68rN4wl/dLkUI4Nvy07hOI1bKQ/FGkY0mMTXDgu6SH8rmWa3/nRMsuPzW5h+SCARW48AwMnd0wTAjBqC9OVARazcW3e+yOLC7FybVCAEYPrzgFKa2yDcHBhVb5dHHBYUbdJAsqpobuxgFAq45zGoUTjQAOb0ML5iwYWn2ud8nA+tM54wNgsrB9EsMiMd2DiwuWYJ0RgVBbmKxMok3HPqECIlHuDyyEC+7lAaYx/wgXCovxTMs4C/k8y2Bw6AIMNFoUKgNNxCgwAhA2MQCOBFx2s/DcCk49LekbA+MCyLyLohKDJbwbAyCX3CcFFCCf1IoTKCJp5UmCUIIlPCgankxgx5ISddnIgnLCyVg70f/6S3rMih0YKO2cHYbDCSllBAC2XjEyCsIIlbCRRaUHz3ShMXi7pGIXBCyfbIopODJrsZgFCDJKLYbiYeapFGCcz7EyTBqMGSXTS4Nw8zyKO3GBpJg8XN6wslQcl55IEeTRysBwTiMEOmqICAXouGZgIYYeToJFIpQeNX5EwfpDwjMQgeKIvMkkQO/gNhRCExGYolKGHXoRyMsSOPKkYFLECn1Q4R5ewi1gKRVjYycXFEStq5WKSdAmKXBpJnJgTDGcJDVnBAE1IRCTzoukBOxr6X3/xwo5X0TCekHCMxiDq0RrZJAoLdsMhRLFiMRzK1EMtwmlMYZFuOgZVaKCTDnB1CbOIp1DFCTP5UK7QKCcfkywkCPI52J4YExBnix2iAgJhC4mAhF50PUBHZNLFfr8iYnyxXmdEnLC/3cgoYdjLNyQXYax3GRJl7PLmIqTGGOfNm5JBGfoiUwLOLq8tYiqUcV6bnChn7LdOTow05J1FTgdrf2eCAtawVyopwhrrDSRVafsLE5VJG/Z8RWXwhj7OqDhxl4cbWRXeOA9XWK5//EkY+izDMplDnlyE1aifJ29anDr2g0wLuEMeW8T14u6PTV6UO/ZTJy9GHuuZRV4He39mAgP2sEcqMcIe6wkkVum73J/IGH3Y/YrM4A+9jcwW4HKzQyP8cW5WaLQA7HsMzawAcqcR2lGC37mp8RKwbzA1kBKw/toitlcN/tdubmYN+PO3Tm7qEhSXKbTf9i1yWKTZcXQLSosc9pxzC4pL0J6b16DwXLPr1D3G5/yus+5Bfz1F++5FKDxx2nniIvkJv/PkReivx9zOUzeh4ZET7bzrKvmRb3uPrkLpAbf7xFVo+EWh3Tf/u0oO977tP/sulO65/WddhuKXQvtv3yYHAM0OpP8vQyOAwx70720ootAe/Od1KDS70Oc+o1cC;" vertex="1" parent="8">
                    <mxGeometry x="15.94" y="20" width="40" height="40" as="geometry"/>
                </mxCell>
                <mxCell id="55" value="" style="group" vertex="1" connectable="0" parent="1">
                    <mxGeometry x="160" y="280" width="200" height="80" as="geometry"/>
                </mxCell>
                <mxCell id="56" value="Phabricator&lt;br&gt;(not implemented)" style="shape=ext;double=1;rounded=1;whiteSpace=wrap;html=1;" vertex="1" parent="55">
                    <mxGeometry width="200" height="80" as="geometry"/>
                </mxCell>
                <mxCell id="58" style="edgeStyle=orthogonalEdgeStyle;curved=1;sketch=0;orthogonalLoop=1;jettySize=auto;html=1;exitX=1;exitY=0.5;exitDx=0;exitDy=0;entryX=0;entryY=0.5;entryDx=0;entryDy=0;dashed=1;fontSize=17;" edge="1" parent="1" source="56" target="15">
                    <mxGeometry relative="1" as="geometry"/>
                </mxCell>
                <mxCell id="59" value="" style="group" vertex="1" connectable="0" parent="1">
                    <mxGeometry x="1040" y="280" width="200" height="80" as="geometry"/>
                </mxCell>
                <mxCell id="60" value="MS Teams&lt;br&gt;(not implemented)" style="shape=ext;double=1;rounded=1;whiteSpace=wrap;html=1;" vertex="1" parent="59">
                    <mxGeometry width="200" height="80" as="geometry"/>
                </mxCell>
                <mxCell id="61" style="edgeStyle=orthogonalEdgeStyle;curved=1;sketch=0;orthogonalLoop=1;jettySize=auto;html=1;exitX=1;exitY=0.5;exitDx=0;exitDy=0;entryX=0;entryY=0.5;entryDx=0;entryDy=0;dashed=1;fontSize=17;" edge="1" parent="1" source="19" target="60">
                    <mxGeometry relative="1" as="geometry"/>
                </mxCell>
            </root>
        </mxGraphModel>
    </diagram>
</mxfile>